<mxfile host="app.diagrams.net" modified="2023-07-29T17:28:36.062Z" agent="Mozilla/5.0 (Macintosh; Intel Mac OS X 10_15_7) AppleWebKit/605.1.15 (KHTML, like Gecko) Version/16.5.2 Safari/605.1.15" version="21.6.5" etag="9MbO6cCk7cw2geTnAyMe" type="github">
  <diagram name="Page-1" id="Ukkp_Dplifw2kk50Vv2h">
    <mxGraphModel>
      <root>
        <mxCell id="0" />
        <mxCell id="1" parent="0" />
      </root>
    </mxGraphModel>
  </diagram>
</mxfile>
